<svg width="45" height="45" viewBox="0 0 45 45" fill="none" xmlns="http://www.w3.org/2000/svg">
<rect width="45" height="45" fill="#F5F5F5"/>
<path d="M-1.27383 -0.961884H45.52V45.8319H-1.27383V-0.961884Z" fill="#A58C64"/>
<path d="M-1.27383 -0.961884H45.52V45.8319H-1.27383V-0.961884Z" fill="#A58C64"/>
<rect x="6.38673" y="43.8867" width="7.45777" height="53.033" transform="rotate(-135 6.38673 43.8867)" fill="#A58C64" stroke="#2D2D2D" stroke-width="0.6"/>
<rect x="43.8867" y="38.6133" width="7.45777" height="53.033" transform="rotate(135 43.8867 38.6133)" fill="#A58C64" stroke="#2D2D2D" stroke-width="0.6"/>
<rect x="42.4219" y="27.7734" width="20.716" height="36.4602" transform="rotate(135 42.4219 27.7734)" fill="#A58C64" stroke="#2D2D2D" stroke-width="0.6"/>
<rect x="16.6406" y="42.4219" width="20.716" height="36.4602" transform="rotate(-135 16.6406 42.4219)" fill="#A58C64" stroke="#2D2D2D" stroke-width="0.6"/>
<rect x="23.9648" y="38.0274" width="24.0306" height="19.8874" transform="rotate(-135 23.9648 38.0274)" fill="#A58C64"/>
<rect x="34.5117" y="39.1992" width="4.97185" height="6.62913" transform="rotate(-135 34.5117 39.1992)" fill="#A58C64"/>
<rect x="9.02348" y="13.711" width="4.97185" height="6.62913" transform="rotate(-135 9.02348 13.711)" fill="#A58C64"/>
<rect x="34.5118" y="15.1758" width="6.62913" height="6.62913" transform="rotate(-135 34.5118 15.1758)" fill="#A58C64"/>
<rect x="9.02348" y="40.6641" width="6.62913" height="6.62913" transform="rotate(-135 9.02348 40.6641)" fill="#A58C64"/>
<rect x="11.9407" y="36.2055" width="4.82561" height="34.3155" transform="rotate(-135 11.9407 36.2055)" fill="#A58C64" stroke="#2D2D2D" stroke-width="0.6"/>
<rect x="36.2054" y="32.7932" width="4.82561" height="34.3155" transform="rotate(135 36.2054 32.7932)" fill="#A58C64" stroke="#2D2D2D" stroke-width="0.6"/>
<rect x="35.2576" y="25.7792" width="13.4045" height="23.5919" transform="rotate(135 35.2576 25.7792)" fill="#A58C64" stroke="#2D2D2D" stroke-width="0.6"/>
<rect x="18.5756" y="35.2576" width="13.4045" height="23.5919" transform="rotate(-135 18.5756 35.2576)" fill="#A58C64" stroke="#2D2D2D" stroke-width="0.6"/>
<rect x="23.3605" y="32.3683" width="15.5492" height="12.739" transform="rotate(-135 23.3605 32.3683)" fill="#A58C64"/>
<rect x="30.213" y="33.0986" width="3.21708" height="4.1636" transform="rotate(-135 30.213 33.0986)" fill="#A58C64"/>
<rect x="13.7205" y="16.6062" width="3.21708" height="4.1636" transform="rotate(-135 13.7205 16.6062)" fill="#A58C64"/>
<rect x="30.1336" y="17.6221" width="4.21875" height="4.28944" transform="rotate(-135 30.1336 17.6221)" fill="#A58C64"/>
<rect x="13.5827" y="34.056" width="4.1636" height="4.28944" transform="rotate(-135 13.5827 34.056)" fill="#A58C64"/>
<ellipse cx="16.9238" cy="27.1856" rx="2.73648" ry="2.59966" transform="matrix(0 -1.04333 0.958469 0 -9.13281 44.8427)" fill="#283273" stroke="#2D2D2D" stroke-width="0.3"/>
<ellipse cx="16.9238" cy="17.0606" rx="2.73648" ry="2.59966" transform="matrix(0 -1.04333 0.958469 0 0.571766 34.7177)" fill="#283273" stroke="#2D2D2D" stroke-width="0.3"/>
<ellipse cx="27.3224" cy="17.0606" rx="2.73648" ry="2.59966" transform="matrix(0 -1.04333 0.958469 0 10.9704 45.5669)" fill="#283273" stroke="#2D2D2D" stroke-width="0.3"/>
<ellipse cx="27.3224" cy="27.1856" rx="2.73648" ry="2.59966" transform="matrix(0 -1.04333 0.958469 0 1.26586 55.692)" fill="#283273" stroke="#2D2D2D" stroke-width="0.3"/>
<ellipse cx="22.1231" cy="22.2599" rx="2.73648" ry="2.59966" transform="matrix(0 -1.04333 0.958469 0 0.787668 45.3416)" fill="#283273" stroke="#2D2D2D" stroke-width="0.3"/>
</svg>
