<svg width="45" height="45" viewBox="0 0 45 45" fill="none" xmlns="http://www.w3.org/2000/svg">
<path d="M0 0H45V45H0V0Z" fill="#A58C64"/>
<path d="M0 0H45V45H0V0Z" fill="#A58C64"/>
<line y1="3.74999" x2="45" y2="3.74999" stroke="#2D2D2D" stroke-width="0.3"/>
<line y1="20.25" x2="45" y2="20.25" stroke="#2D2D2D" stroke-width="0.3"/>
<line y1="23.55" x2="45" y2="23.55" stroke="#2D2D2D" stroke-width="0.3"/>
<line y1="41.25" x2="45" y2="41.25" stroke="#2D2D2D" stroke-width="0.3"/>
<line x1="18.45" x2="18.45" y2="45" stroke="#2D2D2D" stroke-width="0.3"/>
<line x1="18.3" y1="11.85" x2="29.7" y2="11.85" stroke="#2D2D2D" stroke-width="0.3"/>
<line x1="18.3" y1="32.25" x2="29.7" y2="32.25" stroke="#2D2D2D" stroke-width="0.3"/>
<line x1="22.65" y1="3.89999" x2="22.65" y2="7.19999" stroke="#2D2D2D" stroke-width="0.3"/>
<line x1="22.5" y1="7.04999" x2="18.3" y2="7.04999" stroke="#2D2D2D" stroke-width="0.3"/>
<line x1="18.6" y1="8.25001" x2="22.8" y2="8.25001" stroke="#2D2D2D" stroke-width="0.3"/>
<line x1="22.65" y1="8.40001" x2="22.65" y2="12" stroke="#2D2D2D" stroke-width="0.3"/>
<line x1="24.45" y1="12" x2="24.45" y2="8.1" stroke="#2D2D2D" stroke-width="0.3"/>
<line x1="24.5986" y1="8.30455" x2="30.5987" y2="8.25" stroke="#2D2D2D" stroke-width="0.3"/>
<line x1="31.5" y1="7.04999" x2="24.3" y2="7.04999" stroke="#2D2D2D" stroke-width="0.3"/>
<line x1="24.45" y1="6.89999" x2="24.45" y2="3.89999" stroke="#2D2D2D" stroke-width="0.3"/>
<line x1="22.65" y1="23.7" x2="22.65" y2="27.2444" stroke="#2D2D2D" stroke-width="0.3"/>
<line x1="22.5" y1="27.0722" x2="18.3" y2="27.0722" stroke="#2D2D2D" stroke-width="0.3"/>
<line x1="18.6" y1="28.3833" x2="22.8" y2="28.3833" stroke="#2D2D2D" stroke-width="0.3"/>
<line x1="22.65" y1="28.5333" x2="22.65" y2="32.4" stroke="#2D2D2D" stroke-width="0.3"/>
<line x1="24.45" y1="32.4" x2="24.45" y2="28.2111" stroke="#2D2D2D" stroke-width="0.3"/>
<line x1="24.5978" y1="28.442" x2="30.8979" y2="28.35" stroke="#2D2D2D" stroke-width="0.3"/>
<line x1="31.5" y1="27.0722" x2="24.3" y2="27.0722" stroke="#2D2D2D" stroke-width="0.3"/>
<line x1="24.45" y1="26.9222" x2="24.45" y2="23.7" stroke="#2D2D2D" stroke-width="0.3"/>
<line x1="22.65" y1="32.4" x2="22.65" y2="35.9444" stroke="#2D2D2D" stroke-width="0.3"/>
<line x1="22.5" y1="35.7722" x2="18.3" y2="35.7722" stroke="#2D2D2D" stroke-width="0.3"/>
<line x1="18.6" y1="37.0833" x2="22.8" y2="37.0833" stroke="#2D2D2D" stroke-width="0.3"/>
<line x1="22.65" y1="37.2333" x2="22.65" y2="41.1" stroke="#2D2D2D" stroke-width="0.3"/>
<line x1="24.45" y1="41.1" x2="24.45" y2="36.9111" stroke="#2D2D2D" stroke-width="0.3"/>
<line x1="24.5979" y1="37.1419" x2="31.198" y2="37.05" stroke="#2D2D2D" stroke-width="0.3"/>
<line x1="30.6" y1="35.55" x2="24.3" y2="35.55" stroke="#2D2D2D" stroke-width="0.3"/>
<line x1="24.45" y1="35.6222" x2="24.45" y2="32.4" stroke="#2D2D2D" stroke-width="0.3"/>
<line x1="22.65" y1="11.7" x2="22.65" y2="15.2444" stroke="#2D2D2D" stroke-width="0.3"/>
<line x1="22.5" y1="15.0722" x2="18.3" y2="15.0722" stroke="#2D2D2D" stroke-width="0.3"/>
<line x1="18.6" y1="16.3833" x2="22.8" y2="16.3833" stroke="#2D2D2D" stroke-width="0.3"/>
<line x1="22.65" y1="16.5333" x2="22.65" y2="20.4" stroke="#2D2D2D" stroke-width="0.3"/>
<line x1="24.45" y1="20.4" x2="24.45" y2="16.2111" stroke="#2D2D2D" stroke-width="0.3"/>
<line x1="24.5979" y1="16.4419" x2="31.198" y2="16.35" stroke="#2D2D2D" stroke-width="0.3"/>
<line x1="30.3" y1="14.85" x2="24.3" y2="14.85" stroke="#2D2D2D" stroke-width="0.3"/>
<line x1="24.45" y1="14.9222" x2="24.45" y2="11.7" stroke="#2D2D2D" stroke-width="0.3"/>
<mask id="path-41-inside-1_1_290" fill="white">
<path fill-rule="evenodd" clip-rule="evenodd" d="M36.6 21.9C40.8363 19.4627 43.5 15.9302 43.5 12C43.5 8.06982 40.8363 4.53733 36.6 2.1C32.3637 4.53733 29.7 8.06982 29.7 12C29.7 15.9302 32.3637 19.4627 36.6 21.9Z"/>
</mask>
<path d="M36.6 21.9L36.4504 22.16L36.6 22.2461L36.7496 22.16L36.6 21.9ZM36.6 2.1L36.7496 1.83997L36.6 1.75389L36.4504 1.83997L36.6 2.1ZM43.2 12C43.2 15.7828 40.6345 19.2327 36.4504 21.64L36.7496 22.16C41.0381 19.6927 43.8 16.0775 43.8 12H43.2ZM36.4504 2.36003C40.6345 4.76732 43.2 8.21715 43.2 12H43.8C43.8 7.92249 41.0381 4.30734 36.7496 1.83997L36.4504 2.36003ZM30 12C30 8.21715 32.5655 4.76732 36.7496 2.36003L36.4504 1.83997C32.1619 4.30734 29.4 7.92249 29.4 12H30ZM36.7496 21.64C32.5655 19.2327 30 15.7828 30 12H29.4C29.4 16.0775 32.1619 19.6927 36.4504 22.16L36.7496 21.64Z" fill="#2D2D2D" mask="url(#path-41-inside-1_1_290)"/>
<mask id="path-43-inside-2_1_290" fill="white">
<path fill-rule="evenodd" clip-rule="evenodd" d="M36.5871 20.4C40.0787 18.3689 42.2742 15.4251 42.2742 12.15C42.2742 8.87485 40.0787 5.93111 36.5871 3.9C33.0955 5.93111 30.9 8.87485 30.9 12.15C30.9 15.4251 33.0955 18.3689 36.5871 20.4Z"/>
</mask>
<path d="M36.5871 20.4L36.2854 20.9186L36.5871 21.0941L36.8888 20.9186L36.5871 20.4ZM36.5871 3.9L36.8888 3.38137L36.5871 3.20587L36.2854 3.38137L36.5871 3.9ZM41.6742 12.15C41.6742 15.1338 39.6711 17.9119 36.2854 19.8814L36.8888 20.9186C40.4863 18.8259 42.8742 15.7165 42.8742 12.15H41.6742ZM36.2854 4.41863C39.6711 6.38812 41.6742 9.16618 41.6742 12.15H42.8742C42.8742 8.58352 40.4863 5.4741 36.8888 3.38137L36.2854 4.41863ZM31.5 12.15C31.5 9.16618 33.5031 6.38812 36.8888 4.41863L36.2854 3.38137C32.6878 5.4741 30.3 8.58352 30.3 12.15H31.5ZM36.8888 19.8814C33.5031 17.9119 31.5 15.1338 31.5 12.15H30.3C30.3 15.7165 32.6878 18.8259 36.2854 20.9186L36.8888 19.8814Z" fill="#2D2D2D" mask="url(#path-43-inside-2_1_290)"/>
<mask id="path-45-inside-3_1_290" fill="white">
<path fill-rule="evenodd" clip-rule="evenodd" d="M9.28708 20.4C12.7787 18.3689 14.9742 15.4251 14.9742 12.15C14.9742 8.87485 12.7787 5.93111 9.28708 3.9C5.79545 5.93111 3.6 8.87485 3.6 12.15C3.6 15.4251 5.79546 18.3689 9.28708 20.4Z"/>
</mask>
<path d="M9.28708 20.4L8.98539 20.9186L9.28708 21.0941L9.58878 20.9186L9.28708 20.4ZM9.28708 3.9L9.58877 3.38137L9.28708 3.20587L8.98538 3.38137L9.28708 3.9ZM14.3742 12.15C14.3742 15.1338 12.3711 17.9119 8.98539 19.8814L9.58878 20.9186C13.1863 18.8259 15.5742 15.7165 15.5742 12.15H14.3742ZM8.98538 4.41863C12.3711 6.38812 14.3742 9.16618 14.3742 12.15H15.5742C15.5742 8.58352 13.1863 5.4741 9.58877 3.38137L8.98538 4.41863ZM4.2 12.15C4.2 9.16618 6.20308 6.38812 9.58877 4.41863L8.98538 3.38137C5.38783 5.4741 3 8.58352 3 12.15H4.2ZM9.58878 19.8814C6.20308 17.9119 4.2 15.1338 4.2 12.15H3C3 15.7165 5.38783 18.8259 8.98539 20.9186L9.58878 19.8814Z" fill="#2D2D2D" mask="url(#path-45-inside-3_1_290)"/>
<circle cx="9.29999" cy="12.3" r="2.25" fill="#283273" stroke="#2D2D2D" stroke-width="0.3"/>
<circle cx="36.9" cy="12.3" r="2.25" fill="#283273" stroke="#2D2D2D" stroke-width="0.3"/>
<mask id="path-49-inside-4_1_290" fill="white">
<path fill-rule="evenodd" clip-rule="evenodd" d="M36.5871 41.4C40.0787 39.2212 42.2742 36.0633 42.2742 32.55C42.2742 29.0367 40.0787 25.8788 36.5871 23.7C33.0955 25.8788 30.9 29.0367 30.9 32.55C30.9 36.0633 33.0955 39.2212 36.5871 41.4Z"/>
</mask>
<path d="M36.5871 41.4L36.2694 41.909L36.5871 42.1072L36.9047 41.909L36.5871 41.4ZM36.5871 23.7L36.9047 23.191L36.5871 22.9928L36.2694 23.191L36.5871 23.7ZM41.6742 32.55C41.6742 35.7928 39.647 38.7833 36.2694 40.891L36.9047 41.909C40.5104 39.659 42.8742 36.3338 42.8742 32.55H41.6742ZM36.2694 24.209C39.647 26.3167 41.6742 29.3072 41.6742 32.55H42.8742C42.8742 28.7662 40.5104 25.441 36.9047 23.191L36.2694 24.209ZM31.5 32.55C31.5 29.3072 33.5271 26.3167 36.9047 24.209L36.2694 23.191C32.6638 25.441 30.3 28.7662 30.3 32.55H31.5ZM36.9047 40.891C33.5271 38.7833 31.5 35.7928 31.5 32.55H30.3C30.3 36.3338 32.6638 39.659 36.2694 41.909L36.9047 40.891Z" fill="#2D2D2D" mask="url(#path-49-inside-4_1_290)"/>
<mask id="path-51-inside-5_1_290" fill="white">
<path fill-rule="evenodd" clip-rule="evenodd" d="M9.28708 41.4C12.7787 39.2212 14.9742 36.0633 14.9742 32.55C14.9742 29.0367 12.7787 25.8788 9.28708 23.7C5.79545 25.8788 3.6 29.0367 3.6 32.55C3.6 36.0633 5.79546 39.2212 9.28708 41.4Z"/>
</mask>
<path d="M9.28708 41.4L8.96944 41.909L9.28708 42.1072L9.60472 41.909L9.28708 41.4ZM9.28708 23.7L9.60472 23.191L9.28708 22.9928L8.96944 23.191L9.28708 23.7ZM14.3742 32.55C14.3742 35.7928 12.347 38.7833 8.96944 40.891L9.60472 41.909C13.2104 39.659 15.5742 36.3338 15.5742 32.55H14.3742ZM8.96944 24.209C12.347 26.3167 14.3742 29.3072 14.3742 32.55H15.5742C15.5742 28.7662 13.2104 25.441 9.60472 23.191L8.96944 24.209ZM4.2 32.55C4.2 29.3072 6.22713 26.3167 9.60472 24.209L8.96944 23.191C5.36378 25.441 3 28.7662 3 32.55H4.2ZM9.60472 40.891C6.22713 38.7833 4.2 35.7928 4.2 32.55H3C3 36.3338 5.36378 39.659 8.96944 41.909L9.60472 40.891Z" fill="#2D2D2D" mask="url(#path-51-inside-5_1_290)"/>
<mask id="path-53-inside-6_1_290" fill="white">
<path fill-rule="evenodd" clip-rule="evenodd" d="M36.6 42.3C40.8363 39.8627 43.5 36.3302 43.5 32.4C43.5 28.4698 40.8363 24.9373 36.6 22.5C32.3637 24.9373 29.7 28.4698 29.7 32.4C29.7 36.3302 32.3637 39.8627 36.6 42.3Z"/>
</mask>
<path d="M36.6 42.3L36.4504 42.56L36.6 42.6461L36.7496 42.56L36.6 42.3ZM36.6 22.5L36.7496 22.24L36.6 22.1539L36.4504 22.24L36.6 22.5ZM43.2 32.4C43.2 36.1828 40.6345 39.6327 36.4504 42.04L36.7496 42.56C41.0381 40.0927 43.8 36.4775 43.8 32.4H43.2ZM36.4504 22.76C40.6345 25.1673 43.2 28.6171 43.2 32.4H43.8C43.8 28.3225 41.0381 24.7073 36.7496 22.24L36.4504 22.76ZM30 32.4C30 28.6171 32.5655 25.1673 36.7496 22.76L36.4504 22.24C32.1619 24.7073 29.4 28.3225 29.4 32.4H30ZM36.7496 42.04C32.5655 39.6327 30 36.1828 30 32.4H29.4C29.4 36.4775 32.1619 40.0927 36.4504 42.56L36.7496 42.04Z" fill="#2D2D2D" mask="url(#path-53-inside-6_1_290)"/>
<circle cx="9.29999" cy="32.7" r="2.25" fill="#283273" stroke="#2D2D2D" stroke-width="0.3"/>
<circle cx="36.9" cy="32.4" r="2.25" fill="#283273" stroke="#2D2D2D" stroke-width="0.3"/>
<rect x="33.3" y="20.4" width="6.9" height="3" fill="#A58C64"/>
<rect x="33" y="0.600006" width="6.9" height="3" fill="#A58C64"/>
<rect x="33.3" y="41.4" width="6.9" height="3" fill="#A58C64"/>
</svg>
