<svg width="45" height="45" viewBox="0 0 45 45" fill="none" xmlns="http://www.w3.org/2000/svg">
<path d="M-0.595398 -0.500854H45.4579V45.7134H-0.595398V-0.500854Z" fill="#A58C64"/>
<path d="M-0.595398 -0.500854H45.4579V45.7134H-0.595398V-0.500854Z" fill="#A58C64"/>
<rect width="3.20596" height="22.7979" transform="matrix(-0.704817 -0.709389 0.704817 -0.709389 5.19548 41.6915)" fill="#A58C64" stroke="#2D2D2D" stroke-width="0.6"/>
<rect width="3.20596" height="22.7979" transform="matrix(-0.704817 0.709389 -0.704817 -0.709389 21.2639 39.4172)" fill="#A58C64" stroke="#2D2D2D" stroke-width="0.6"/>
<rect width="8.90544" height="15.6736" transform="matrix(-0.704817 0.709389 -0.704817 -0.709389 20.6362 34.7423)" fill="#A58C64" stroke="#2D2D2D" stroke-width="0.6"/>
<rect width="8.90544" height="15.6736" transform="matrix(-0.704817 -0.709389 0.704817 -0.709389 9.5892 41.0597)" fill="#A58C64" stroke="#2D2D2D" stroke-width="0.6"/>
<rect width="10.3303" height="8.27841" transform="matrix(-0.704817 -0.709389 0.704817 -0.709389 12.84 39.0513)" fill="#A58C64"/>
<rect width="2.13731" height="2.63705" transform="matrix(-0.704817 -0.709389 0.704817 -0.709389 17.3172 39.599)" fill="#A58C64"/>
<rect width="2.13731" height="2.55599" transform="matrix(-0.704817 -0.709389 0.704817 -0.709389 6.41734 28.5849)" fill="#A58C64"/>
<rect width="2.47334" height="2.84974" transform="matrix(-0.704817 -0.709389 0.704817 -0.709389 17.0846 29.1461)" fill="#A58C64"/>
<rect width="2.56871" height="2.84974" transform="matrix(-0.704817 -0.709389 0.704817 -0.709389 6.22298 40.1986)" fill="#A58C64"/>
<ellipse cx="8.3717" cy="35.6843" rx="1.78684" ry="1.77532" transform="matrix(0 -1.00649 0.993555 0 -27.0826 44.1103)" fill="#283273" stroke="#2D2D2D" stroke-width="0.3"/>
<ellipse cx="8.3717" cy="29.073" rx="1.78684" ry="1.77532" transform="matrix(0 -1.00649 0.993555 0 -20.5139 37.499)" fill="#283273" stroke="#2D2D2D" stroke-width="0.3"/>
<ellipse cx="15.473" cy="29.073" rx="1.78684" ry="1.77532" transform="matrix(0 -1.00649 0.993555 0 -13.4126 44.6464)" fill="#283273" stroke="#2D2D2D" stroke-width="0.3"/>
<ellipse cx="15.473" cy="35.6843" rx="1.78684" ry="1.77532" transform="matrix(0 -1.00649 0.993555 0 -19.9813 51.2577)" fill="#283273" stroke="#2D2D2D" stroke-width="0.3"/>
<ellipse cx="11.9223" cy="32.468" rx="1.78684" ry="1.77532" transform="matrix(0 -1.00649 0.993555 0 -20.3364 44.4677)" fill="#283273" stroke="#2D2D2D" stroke-width="0.3"/>
<rect width="3.20596" height="22.7979" transform="matrix(-0.704817 -0.709389 0.704817 -0.709389 26.9315 20.656)" fill="#A58C64" stroke="#2D2D2D" stroke-width="0.6"/>
<rect width="3.20596" height="22.7979" transform="matrix(-0.704817 0.709389 -0.704817 -0.709389 42.9999 18.3817)" fill="#A58C64" stroke="#2D2D2D" stroke-width="0.6"/>
<rect width="8.90544" height="15.6736" transform="matrix(-0.704817 0.709389 -0.704817 -0.709389 42.3722 13.7069)" fill="#A58C64" stroke="#2D2D2D" stroke-width="0.6"/>
<rect width="8.90544" height="15.6736" transform="matrix(-0.704817 -0.709389 0.704817 -0.709389 31.3252 20.0243)" fill="#A58C64" stroke="#2D2D2D" stroke-width="0.6"/>
<rect width="10.3303" height="8.27841" transform="matrix(-0.704817 -0.709389 0.704817 -0.709389 34.576 18.0159)" fill="#A58C64"/>
<rect width="2.13731" height="2.63705" transform="matrix(-0.704817 -0.709389 0.704817 -0.709389 39.0532 18.5635)" fill="#A58C64"/>
<rect width="2.13731" height="2.55599" transform="matrix(-0.704817 -0.709389 0.704817 -0.709389 28.1533 7.54951)" fill="#A58C64"/>
<rect width="2.47334" height="2.84974" transform="matrix(-0.704817 -0.709389 0.704817 -0.709389 38.8206 8.11067)" fill="#A58C64"/>
<rect width="2.56871" height="2.84974" transform="matrix(-0.704817 -0.709389 0.704817 -0.709389 27.959 19.1632)" fill="#A58C64"/>
<ellipse cx="30.1077" cy="14.6489" rx="1.78684" ry="1.77532" transform="matrix(0 -1.00649 0.993555 0 15.5532 44.9519)" fill="#283273" stroke="#2D2D2D" stroke-width="0.3"/>
<ellipse cx="30.1077" cy="8.03757" rx="1.78684" ry="1.77532" transform="matrix(0 -1.00649 0.993555 0 22.1219 38.3406)" fill="#283273" stroke="#2D2D2D" stroke-width="0.3"/>
<ellipse cx="37.209" cy="8.03757" rx="1.78684" ry="1.77532" transform="matrix(0 -1.00649 0.993555 0 29.2233 45.488)" fill="#283273" stroke="#2D2D2D" stroke-width="0.3"/>
<ellipse cx="37.209" cy="14.957" rx="1.78684" ry="1.77532" transform="matrix(0 -1.00649 0.993555 0 22.3484 52.4074)" fill="#283273" stroke="#2D2D2D" stroke-width="0.3"/>
<ellipse cx="33.6583" cy="11.4326" rx="1.78684" ry="1.77532" transform="matrix(0 -1.00649 0.993555 0 22.2994 45.3093)" fill="#283273" stroke="#2D2D2D" stroke-width="0.3"/>
<rect width="3.20594" height="22.7976" transform="matrix(0.705872 -0.708339 0.707977 0.706235 1.91467 4.20972)" fill="#A58C64" stroke="#2D2D2D" stroke-width="0.6"/>
<rect width="3.20591" height="22.7978" transform="matrix(-0.707977 -0.706235 0.705872 -0.708339 4.20494 20.3308)" fill="#A58C64" stroke="#2D2D2D" stroke-width="0.6"/>
<rect width="8.9053" height="15.6735" transform="matrix(-0.707977 -0.706235 0.705872 -0.708339 8.86261 19.694)" fill="#A58C64" stroke="#2D2D2D" stroke-width="0.6"/>
<rect width="8.90539" height="15.6733" transform="matrix(0.705872 -0.708339 0.707977 0.706235 2.55075 8.61786)" fill="#A58C64" stroke="#2D2D2D" stroke-width="0.6"/>
<rect width="10.3303" height="8.27828" transform="matrix(0.705872 -0.708339 0.707977 0.706235 4.55702 11.877)" fill="#A58C64"/>
<rect width="2.1373" height="2.63701" transform="matrix(0.705872 -0.708339 0.707977 0.706235 4.0179 16.3707)" fill="#A58C64"/>
<rect width="2.1373" height="2.55595" transform="matrix(0.705872 -0.708339 0.707977 0.706235 14.9773 5.41635)" fill="#A58C64"/>
<rect width="2.47332" height="2.8497" transform="matrix(0.705872 -0.708339 0.707977 0.706235 14.434 16.1217)" fill="#A58C64"/>
<rect width="2.56869" height="2.8497" transform="matrix(0.705872 -0.708339 0.707977 0.706235 3.40384 5.23859)" fill="#A58C64"/>
<circle cx="1.78107" cy="1.78107" r="1.78107" transform="matrix(0.999742 -0.00149301 0.00148336 1.00026 6.12235 5.60925)" fill="#283273" stroke="#2D2D2D" stroke-width="0.3"/>
<circle cx="1.78107" cy="1.78107" r="1.78107" transform="matrix(0.999742 -0.001493 0.00148334 1.00026 12.7106 5.5994)" fill="#283273" stroke="#2D2D2D" stroke-width="0.3"/>
<circle cx="1.78107" cy="1.78107" r="1.78107" transform="matrix(0.999742 -0.001493 0.00148334 1.00026 12.7212 12.4174)" fill="#283273" stroke="#2D2D2D" stroke-width="0.3"/>
<circle cx="1.78107" cy="1.78107" r="1.78107" transform="matrix(0.999742 -0.001493 0.00148334 1.00026 6.13293 12.7354)" fill="#283273" stroke="#2D2D2D" stroke-width="0.3"/>
<circle cx="1.78107" cy="1.78107" r="1.78107" transform="matrix(0.999742 -0.001493 0.00148334 1.00026 9.33274 9.16748)" fill="#283273" stroke="#2D2D2D" stroke-width="0.3"/>
<rect width="3.20594" height="22.7976" transform="matrix(0.705872 -0.708339 0.707977 0.706235 24.6822 26.9607)" fill="#A58C64" stroke="#2D2D2D" stroke-width="0.6"/>
<rect width="3.20591" height="22.7978" transform="matrix(-0.707977 -0.706235 0.705872 -0.708339 26.9724 43.0818)" fill="#A58C64" stroke="#2D2D2D" stroke-width="0.6"/>
<rect width="8.9053" height="15.6735" transform="matrix(-0.707977 -0.706235 0.705872 -0.708339 31.6301 42.445)" fill="#A58C64" stroke="#2D2D2D" stroke-width="0.6"/>
<rect width="8.90539" height="15.6733" transform="matrix(0.705872 -0.708339 0.707977 0.706235 25.3183 31.3688)" fill="#A58C64" stroke="#2D2D2D" stroke-width="0.6"/>
<rect width="10.3303" height="8.27828" transform="matrix(0.705872 -0.708339 0.707977 0.706235 27.3245 34.628)" fill="#A58C64"/>
<rect width="2.1373" height="2.63701" transform="matrix(0.705872 -0.708339 0.707977 0.706235 26.7854 39.1217)" fill="#A58C64"/>
<rect width="2.1373" height="2.55595" transform="matrix(0.705872 -0.708339 0.707977 0.706235 37.7449 28.1673)" fill="#A58C64"/>
<rect width="2.47332" height="2.8497" transform="matrix(0.705872 -0.708339 0.707977 0.706235 37.2015 38.8726)" fill="#A58C64"/>
<rect width="2.56869" height="2.8497" transform="matrix(0.705872 -0.708339 0.707977 0.706235 26.1713 27.9895)" fill="#A58C64"/>
<circle cx="1.78107" cy="1.78107" r="1.78107" transform="matrix(0.999742 -0.00149301 0.00148336 1.00026 28.8899 28.3602)" fill="#283273" stroke="#2D2D2D" stroke-width="0.3"/>
<circle cx="1.78107" cy="1.78107" r="1.78107" transform="matrix(0.999742 -0.001493 0.00148334 1.00026 35.4781 28.3503)" fill="#283273" stroke="#2D2D2D" stroke-width="0.3"/>
<circle cx="1.78107" cy="1.78107" r="1.78107" transform="matrix(0.999742 -0.001493 0.00148334 1.00026 35.4887 35.4765)" fill="#283273" stroke="#2D2D2D" stroke-width="0.3"/>
<circle cx="1.78107" cy="1.78107" r="1.78107" transform="matrix(0.999742 -0.001493 0.00148334 1.00026 28.9004 35.4863)" fill="#283273" stroke="#2D2D2D" stroke-width="0.3"/>
<circle cx="1.78107" cy="1.78107" r="1.78107" transform="matrix(0.999742 -0.001493 0.00148334 1.00026 32.4073 31.9185)" fill="#283273" stroke="#2D2D2D" stroke-width="0.3"/>
<line x1="-0.653942" y1="22.0724" x2="45.3994" y2="22.0707" stroke="#2D2D2D" stroke-width="0.6"/>
<line y1="-0.3" x2="46.2915" y2="-0.3" transform="matrix(0.0119033 0.999929 -0.999928 0.0119866 22.1287 -0.500854)" stroke="#2D2D2D" stroke-width="0.6"/>
</svg>
