<svg width="45" height="45" viewBox="0 0 45 45" fill="none" xmlns="http://www.w3.org/2000/svg">
<circle cx="22.5" cy="22.5" r="22.5" fill="#2D2D2D"/>
<ellipse cx="22.6619" cy="9.90405" rx="3.87931" ry="4.03448" fill="#E6D7CD"/>
<ellipse cx="22.6619" cy="36.5127" rx="3.87931" ry="4.03448" fill="#E6D7CD"/>
<ellipse cx="22.6619" cy="23.2084" rx="3.87931" ry="4.03448" fill="#E6D7CD"/>
<path d="M13.6282 23.2084C13.6282 25.4366 11.8914 27.2429 9.74888 27.2429C7.60639 27.2429 5.86957 25.4366 5.86957 23.2084C5.86957 20.9802 7.60639 19.1739 9.74888 19.1739C11.8914 19.1739 13.6282 20.9802 13.6282 23.2084Z" fill="#E6D7CD"/>
<path d="M39.2519 23.2759C39.2519 25.504 37.515 27.3103 35.3726 27.3103C33.2301 27.3103 31.4933 25.504 31.4933 23.2759C31.4933 21.0477 33.2301 19.2414 35.3726 19.2414C37.515 19.2414 39.2519 21.0477 39.2519 23.2759Z" fill="#E6D7CD"/>
</svg>
