<svg width="45" height="45" viewBox="0 0 45 45" fill="none" xmlns="http://www.w3.org/2000/svg">
<rect width="45" height="45" fill="#A58C64"/>
<path d="M21.1147 12.9488C21.4907 14.2917 21.6327 15.5776 21.5625 16.5681C21.5274 17.0639 21.4397 17.4772 21.3076 17.7842C21.1754 18.0916 21.0073 18.2749 20.8174 18.3489C20.6275 18.423 20.3998 18.3939 20.1385 18.24C19.8774 18.0861 19.5983 17.8159 19.3197 17.4423C18.7633 16.6961 18.2281 15.5634 17.8521 14.2206C17.4761 12.8778 17.3341 11.5918 17.4043 10.6014C17.4394 10.1055 17.5271 9.69226 17.6592 9.38519C17.7914 9.07782 17.9595 8.89452 18.1494 8.8205C18.3393 8.74647 18.567 8.7755 18.8283 8.92947C19.0894 9.08329 19.3685 9.35353 19.6471 9.72712C20.2035 10.4733 20.7388 11.606 21.1147 12.9488Z" fill="#82413C" stroke="#2D2D2D" stroke-width="0.3"/>
<path d="M27.2973 14.4557C26.91 15.7952 26.3647 16.9248 25.8011 17.6689C25.5189 18.0414 25.237 18.3108 24.974 18.464C24.7108 18.6174 24.4824 18.6461 24.2926 18.5721C24.1029 18.4981 23.9357 18.3151 23.8055 18.0083C23.6755 17.7018 23.5908 17.2894 23.5594 16.7946C23.4966 15.8063 23.6489 14.5233 24.0362 13.1838C24.4235 11.8443 24.9688 10.7147 25.5324 9.97062C25.8146 9.59812 26.0965 9.32873 26.3594 9.17549C26.6227 9.0221 26.8511 8.99336 27.0408 9.06737C27.2306 9.14139 27.3978 9.3244 27.5279 9.6312C27.658 9.93771 27.7427 10.3501 27.7741 10.8449C27.8368 11.8332 27.6846 13.1162 27.2973 14.4557Z" fill="#283273" stroke="#2D2D2D" stroke-width="0.3"/>
<path d="M11.9969 23.9616C13.4714 23.6176 14.8845 23.4874 15.9742 23.5516C16.52 23.5838 16.9754 23.6642 17.3137 23.7853C17.6549 23.9075 17.8471 24.0594 17.9229 24.2213C17.9986 24.3831 17.9724 24.5859 17.8014 24.8276C17.6319 25.0672 17.334 25.3234 16.9227 25.5787C16.1017 26.0886 14.8568 26.5784 13.3823 26.9223C11.9078 27.2662 10.4947 27.3965 9.40499 27.3323C8.85922 27.3001 8.40383 27.2197 8.0655 27.0985C7.72425 26.9763 7.53205 26.8244 7.45633 26.6626C7.38061 26.5008 7.40681 26.2979 7.5778 26.0562C7.74733 25.8166 8.04523 25.5605 8.45647 25.3051C9.27753 24.7952 10.5224 24.3055 11.9969 23.9616Z" fill="#82413C" stroke="#2D2D2D" stroke-width="0.3"/>
<path d="M13.639 18.3214C15.1098 18.6757 16.3513 19.1747 17.17 19.6911C17.58 19.9498 17.877 20.2085 18.0458 20.4498C18.2162 20.6931 18.2421 20.8967 18.1664 21.0584C18.0906 21.2202 17.8987 21.3712 17.5581 21.4915C17.2205 21.6108 16.766 21.6885 16.2214 21.7172C15.1342 21.7746 13.7244 21.635 12.2536 21.2807C10.7828 20.9264 9.54125 20.4274 8.7226 19.911C8.31257 19.6523 8.01563 19.3936 7.84675 19.1523C7.67642 18.909 7.65049 18.7055 7.72622 18.5437C7.80194 18.382 7.99386 18.2309 8.33446 18.1106C8.67214 17.9913 9.12657 17.9136 9.67114 17.8849C10.7584 17.8275 12.1682 17.9672 13.639 18.3214Z" fill="#283273" stroke="#2D2D2D" stroke-width="0.3"/>
<path d="M32.3273 21.4606C30.9897 21.8382 29.7087 21.9808 28.7222 21.9105C28.2283 21.8753 27.8167 21.7873 27.5109 21.6548C27.2049 21.5222 27.022 21.3533 26.9481 21.1622C26.8742 20.9711 26.9033 20.7424 27.0567 20.4801C27.2099 20.218 27.4791 19.9379 27.8512 19.6583C28.5946 19.0997 29.7229 18.5624 31.0606 18.1848C32.3982 17.8073 33.6792 17.6647 34.6657 17.735C35.1596 17.7702 35.5712 17.8582 35.877 17.9907C36.183 18.1233 36.3659 18.2922 36.4398 18.4833C36.5137 18.6744 36.4846 18.9031 36.3312 19.1654C36.178 19.4275 35.9088 19.7076 35.5367 19.9872C34.7933 20.5458 33.665 21.0831 32.3273 21.4606Z" fill="#82413C" stroke="#2D2D2D" stroke-width="0.3"/>
<path d="M30.8272 27.6649C29.4928 27.276 28.3675 26.7285 27.6263 26.1627C27.2553 25.8795 26.9869 25.5966 26.8342 25.3326C26.6815 25.0685 26.6526 24.839 26.7265 24.648C26.8004 24.457 26.983 24.2891 27.2885 24.1586C27.5938 24.0281 28.0045 23.9431 28.4973 23.9116C29.4817 23.8488 30.7597 24.0017 32.094 24.3906C33.4284 24.7795 34.5536 25.327 35.2948 25.8928C35.6659 26.176 35.9343 26.4589 36.0869 26.7229C36.2397 26.987 36.2686 27.2165 36.1947 27.4075C36.1208 27.5985 35.9382 27.7664 35.6327 27.8969C35.3274 28.0274 34.9167 28.1124 34.4239 28.1439C33.4394 28.2067 32.1615 28.0538 30.8272 27.6649Z" fill="#283273" stroke="#2D2D2D" stroke-width="0.3"/>
<path d="M27.3389 31.4422C27.7149 32.7851 27.8569 34.071 27.7867 35.0615C27.7516 35.5573 27.6638 35.9706 27.5318 36.2776C27.3996 36.585 27.2314 36.7683 27.0415 36.8423C26.8516 36.9164 26.624 36.8873 26.3627 36.7334C26.1016 36.5795 25.8225 36.3093 25.5439 35.9357C24.9874 35.1895 24.4522 34.0568 24.0762 32.714C23.7002 31.3712 23.5583 30.0852 23.6284 29.0948C23.6636 28.5989 23.7513 28.1857 23.8834 27.8786C24.0155 27.5712 24.1837 27.3879 24.3736 27.3139C24.5635 27.2399 24.7911 27.2689 25.0525 27.4229C25.3136 27.5767 25.5927 27.8469 25.8713 28.2205C26.4277 28.9667 26.9629 30.0994 27.3389 31.4422Z" fill="#82413C" stroke="#2D2D2D" stroke-width="0.3"/>
<path d="M21.1555 32.4793C20.768 33.8188 20.2225 34.9484 19.6587 35.6925C19.3765 36.065 19.0945 36.3344 18.8315 36.4877C18.5682 36.6411 18.3398 36.6699 18.15 36.5959C17.9602 36.5219 17.7931 36.3389 17.6629 36.0322C17.5329 35.7257 17.4482 35.3134 17.4168 34.8186C17.3542 33.8304 17.5066 32.5475 17.8941 31.2081C18.2816 29.8686 18.8271 28.739 19.3909 27.9949C19.6731 27.6224 19.9551 27.353 20.2181 27.1997C20.4813 27.0463 20.7098 27.0175 20.8995 27.0915C21.0893 27.1655 21.2565 27.3485 21.3866 27.6552C21.5167 27.9617 21.6014 28.374 21.6327 28.8688C21.6954 29.857 21.5429 31.1399 21.1555 32.4793Z" fill="#283273" stroke="#2D2D2D" stroke-width="0.3"/>
<path d="M24.1521 22.603C24.1521 23.5298 23.4037 24.2801 22.4817 24.2801C21.5597 24.2801 20.8113 23.5298 20.8113 22.603C20.8113 21.6762 21.5597 20.9258 22.4817 20.9258C23.4037 20.9258 24.1521 21.6762 24.1521 22.603Z" fill="#82413C" stroke="#2D2D2D" stroke-width="0.3"/>
<path d="M25.5789 25.6224L25.4691 25.3984L25.2289 25.4661L22.6829 26.1838L22.4448 26.251L22.4649 26.4977L23.1316 34.6625L23.1387 34.7492L23.1909 34.8185L27.1251 40.0433L27.5137 40.5595L27.657 39.9285L29.1972 33.149L29.2207 33.0455L29.174 32.9503L25.5789 25.6224Z" stroke="#2D2D2D" stroke-width="0.6"/>
<path d="M22.6613 26.4312L22.6777 26.1821L22.436 26.1201L19.8737 25.4636L19.634 25.4022L19.5286 25.6259L16.0398 33.0316L16.0027 33.1102L16.0134 33.1964L16.8185 39.6962L16.898 40.3383L17.3364 39.8638L22.0465 34.7657L22.1184 34.6879L22.1254 34.582L22.6613 26.4312Z" stroke="#2D2D2D" stroke-width="0.6"/>
<path d="M19.6564 20.3506L19.7662 20.5745L20.0064 20.5068L22.5524 19.7891L22.7905 19.722L22.7704 19.4753L22.1037 11.3104L22.0966 11.2238L22.0444 11.1545L18.1102 5.92963L17.7216 5.4135L17.5783 6.04442L16.0381 12.8239L16.0146 12.9275L16.0613 13.0227L19.6564 20.3506Z" stroke="#2D2D2D" stroke-width="0.6"/>
<path d="M22.574 19.5418L22.5576 19.7909L22.7993 19.8529L25.3616 20.5094L25.6013 20.5708L25.7067 20.3471L29.1955 12.9414L29.2326 12.8628L29.2219 12.7766L28.4168 6.27679L28.3373 5.63472L27.899 6.10916L23.1888 11.2072L23.1169 11.2851L23.1099 11.391L22.574 19.5418Z" stroke="#2D2D2D" stroke-width="0.6"/>
<path d="M25.2435 20.0153L25.02 20.1258L25.0872 20.3658L25.8022 22.9212L25.8688 23.1592L26.115 23.139L34.2496 22.4698L34.3367 22.4626L34.4064 22.4098L39.6119 18.4609L40.124 18.0725L39.4983 17.9292L32.7439 16.3833L32.6399 16.3595L32.5442 16.4069L25.2435 20.0153Z" stroke="#2D2D2D" stroke-width="0.6"/>
<path d="M26.0482 22.9434L25.7996 22.9269L25.7382 23.1684L25.0845 25.7403L25.0236 25.9799L25.2469 26.0859L32.6251 29.5888L32.7041 29.6264L32.7907 29.6155L39.2659 28.8082L39.9029 28.7287L39.4324 28.2907L34.353 23.5622L34.2748 23.4894L34.1683 23.4823L26.0482 22.9434Z" stroke="#2D2D2D" stroke-width="0.6"/>
<path d="M19.316 25.7134L19.5426 25.6095L19.4824 25.3676L18.8417 22.7924L18.7821 22.5526L18.5353 22.5656L10.3848 22.9971L10.2975 23.0017L10.2263 23.0525L4.90863 26.8477L4.38552 27.221L5.00675 27.3824L11.7135 29.1249L11.8167 29.1517L11.9138 29.1072L19.316 25.7134Z" stroke="#2D2D2D" stroke-width="0.6"/>
<path d="M18.672 22.6821L18.9211 22.6854L18.9697 22.441L19.4872 19.838L19.5354 19.5956L19.3068 19.5015L11.7547 16.3946L11.6738 16.3613L11.5878 16.3767L5.16414 17.5262L4.53226 17.6393L5.02512 18.0517L10.3462 22.5044L10.4282 22.573L10.5349 22.5744L18.672 22.6821Z" stroke="#2D2D2D" stroke-width="0.6"/>
<line y1="-0.5" x2="12.3707" y2="-0.5" transform="matrix(0.23578 -0.971751 0.973484 0.228985 14.157 14.3133)" stroke="#2D2D2D"/>
<line y1="-0.5" x2="13.4557" y2="-0.5" transform="matrix(0.979687 -0.200215 0.198816 0.980101 0.97493 17.0072)" stroke="#2D2D2D"/>
<line y1="-0.5" x2="8.34899" y2="-0.5" transform="matrix(-0.74522 -0.667021 0.680571 -0.732496 23.2956 7.86102)" stroke="#2D2D2D"/>
<line y1="-0.5" x2="9.54258" y2="-0.5" transform="matrix(-0.725868 -0.688033 0.701329 -0.712646 8.15614 22.8232)" stroke="#2D2D2D"/>
<line y1="-0.5" x2="12.5886" y2="-0.5" transform="matrix(0.973484 0.228985 -0.23578 0.971751 31.9683 14.0064)" stroke="#2D2D2D"/>
<line y1="-0.5" x2="13.3571" y2="-0.5" transform="matrix(0.232913 0.972571 -0.971973 0.234789 28.8555 1.01614)" stroke="#2D2D2D"/>
<line y1="-0.5" x2="10.0719" y2="-0.5" transform="matrix(0.665777 -0.745969 0.75832 0.652088 37.5172 24.4023)" stroke="#2D2D2D"/>
<line y1="-0.5" x2="9.523" y2="-0.5" transform="matrix(0.701329 -0.712646 0.725868 0.688033 23.2866 8.10321)" stroke="#2D2D2D"/>
<line y1="-0.5" x2="11.6595" y2="-0.5" transform="matrix(-0.939459 -0.342896 0.340598 -0.940124 12.9238 30.9995)" stroke="#2D2D2D"/>
<line y1="-0.5" x2="12.3588" y2="-0.5" transform="matrix(-0.241571 -0.970459 0.969823 -0.243506 15.911 42.9928)" stroke="#2D2D2D"/>
<line y1="-0.5" x2="8.10172" y2="-0.5" transform="matrix(-0.855909 0.516883 -0.514199 -0.857818 7.90929 22.814)" stroke="#2D2D2D"/>
<line y1="-0.5" x2="9.33311" y2="-0.5" transform="matrix(-0.781768 0.623351 -0.620686 -0.784233 22.2116 37.175)" stroke="#2D2D2D"/>
<line y1="-0.5" x2="12.8285" y2="-0.5" transform="matrix(-0.36208 0.932056 -0.936244 -0.351586 31.7812 32.4369)" stroke="#2D2D2D"/>
<path d="M43.7915 30.9989L31.8155 32.9355" stroke="#2D2D2D"/>
<line y1="-0.5" x2="8.73751" y2="-0.5" transform="matrix(0.56363 0.826187 -0.835998 0.548495 22.2116 37.175)" stroke="#2D2D2D"/>
<line y1="-0.5" x2="9.86863" y2="-0.5" transform="matrix(0.648221 0.761632 -0.773482 0.633603 37.2704 24.3931)" stroke="#2D2D2D"/>
</svg>
