<svg width="71" height="70" viewBox="0 0 71 70" fill="none" xmlns="http://www.w3.org/2000/svg">
<path d="M5.60675 51.9191L35.0457 1.61373L64.4847 51.9191H5.60675Z" fill="#2D2D2D" stroke="#E6D7CD" stroke-width="2"/>
<path d="M40.4182 23.409C40.4182 26.3761 38.0128 28.7815 35.0457 28.7815C32.0785 28.7815 29.6732 26.3761 29.6732 23.409C29.6732 20.4418 32.0785 18.0365 35.0457 18.0365C38.0128 18.0365 40.4182 20.4418 40.4182 23.409Z" fill="#E6D7CD" stroke="#E6D7CD"/>
<path d="M40.4181 40.7916C40.4181 43.7588 38.0128 46.1641 35.0457 46.1641C32.0785 46.1641 29.6732 43.7588 29.6732 40.7916C29.6732 37.8245 32.0785 35.4191 35.0457 35.4191C38.0128 35.4191 40.4181 37.8245 40.4181 40.7916Z" fill="#E6D7CD" stroke="#E6D7CD"/>
</svg>
