<svg width="71" height="70" viewBox="0 0 71 70" fill="none" xmlns="http://www.w3.org/2000/svg">
<path d="M5.60675 51.9191L35.0457 1.61373L64.4847 51.9191H5.60675Z" fill="#E6D7CD" stroke="#2D2D2D" stroke-width="2"/>
<path d="M35.2635 32.6659C35.2635 35.6331 32.8581 38.0384 29.891 38.0384C26.9238 38.0384 24.5185 35.6331 24.5185 32.6659C24.5185 29.6988 26.9238 27.2935 29.891 27.2935C32.8581 27.2935 35.2635 29.6988 35.2635 32.6659Z" fill="#2D2D2D" stroke="#2D2D2D"/>
<path d="M50.1019 40.9001C50.1019 43.8672 47.6966 46.2725 44.7294 46.2725C41.7623 46.2725 39.3569 43.8672 39.3569 40.9001C39.3569 37.9329 41.7623 35.5276 44.7294 35.5276C47.6966 35.5276 50.1019 37.9329 50.1019 40.9001Z" fill="#2D2D2D" stroke="#2D2D2D"/>
</svg>
