<?xml version="1.0" standalone="no"?>
<!DOCTYPE svg PUBLIC "-//W3C//DTD SVG 20010904//EN"
 "http://www.w3.org/TR/2001/REC-SVG-20010904/DTD/svg10.dtd">
<svg version="1.0" xmlns="http://www.w3.org/2000/svg"
 width="688.000000pt" height="688.000000pt" viewBox="0 0 688.000000 688.000000"
 preserveAspectRatio="xMidYMid meet">
<metadata>
Created by potrace 1.14, written by Peter Selinger 2001-2017
</metadata>
<g transform="translate(0.000000,688.000000) scale(0.100000,-0.100000)"
fill="#000000" stroke="none">
<path d="M2748 6474 c-2 -1 -34 -5 -73 -8 -38 -3 -82 -8 -96 -11 -14 -2 -41
-7 -60 -9 -19 -3 -34 -5 -34 -6 0 -1 -11 -3 -25 -6 -47 -8 -245 -68 -265 -79
-11 -7 -44 -21 -72 -31 -29 -10 -53 -21 -53 -25 0 -4 -12 -10 -26 -13 -14 -4
-62 -29 -106 -56 -44 -28 -82 -50 -85 -50 -2 0 -11 -6 -18 -12 -31 -28 -44
-38 -51 -38 -4 0 -32 -21 -63 -47 -89 -74 -86 -71 -217 -207 -22 -23 -68 -80
-102 -126 -34 -47 -65 -90 -69 -95 -9 -12 -32 -53 -60 -105 -10 -19 -20 -37
-23 -40 -9 -8 -67 -140 -95 -215 -30 -79 -67 -214 -80 -290 -3 -16 -7 -43 -10
-60 -29 -157 -23 -455 11 -605 3 -14 8 -36 10 -50 4 -20 17 -71 29 -110 1 -3
5 -18 9 -35 4 -16 11 -39 16 -50 4 -11 20 -51 35 -90 29 -76 128 -270 151
-296 8 -8 14 -20 14 -26 0 -6 3 -13 8 -15 4 -1 29 -34 56 -72 64 -90 231 -259
352 -356 26 -20 168 -111 227 -145 27 -15 46 -33 44 -39 -7 -18 -39 -130 -43
-151 -19 -92 -35 -204 -40 -275 -3 -47 -8 -87 -10 -89 -2 -2 1 -12 7 -22 6
-13 6 -19 0 -19 -6 0 -9 -6 -6 -12 2 -7 6 -56 10 -109 6 -94 9 -120 22 -189 3
-19 7 -39 8 -45 0 -5 5 -28 10 -50 5 -22 10 -42 10 -45 3 -17 37 -128 44 -145
87 -210 128 -292 204 -404 54 -81 58 -85 138 -180 63 -74 173 -181 234 -226
22 -16 42 -33 45 -36 23 -29 357 -219 385 -219 4 0 21 -6 38 -14 59 -26 206
-72 267 -83 177 -33 202 -36 380 -36 180 -1 254 5 365 30 17 4 34 6 39 5 4 -2
14 3 22 9 8 6 14 9 14 6 0 -3 15 -1 33 4 17 6 37 11 42 13 85 22 307 113 313
128 2 4 9 8 15 8 14 0 151 81 155 92 2 4 8 8 14 8 8 0 79 51 158 115 67 53
216 213 278 297 72 98 152 226 152 245 0 6 4 13 8 15 4 2 22 36 40 75 78 176
128 361 150 548 12 112 5 394 -12 485 -3 14 -8 39 -10 55 -7 40 -11 59 -31
130 -9 33 -18 67 -20 75 -12 51 -97 242 -157 350 -21 39 -88 142 -114 175 -13
17 -32 41 -41 54 -40 53 -191 206 -257 259 -39 31 -73 59 -76 62 -9 9 -164
107 -200 126 -53 28 -60 35 -53 48 4 6 8 16 9 21 1 6 7 30 14 55 12 44 15 58
25 103 15 69 20 102 30 187 4 30 9 58 12 63 2 4 -1 7 -7 7 -7 0 -8 6 -2 18 9
20 9 176 -2 274 -7 67 -11 93 -21 146 -3 15 -7 36 -9 47 -7 40 -38 151 -57
205 -11 30 -22 62 -24 70 -3 14 -55 133 -74 170 -52 101 -139 234 -204 315
-52 64 -209 221 -266 266 -24 19 -48 39 -55 44 -21 20 -152 103 -206 131 -30
16 -56 32 -58 37 -2 4 -12 7 -22 7 -10 0 -20 3 -22 8 -1 4 -41 22 -88 41 -47
18 -94 37 -105 41 -20 9 -46 17 -82 25 -10 3 -45 12 -78 20 -33 8 -76 17 -95
20 -19 3 -44 8 -55 10 -60 13 -358 28 -367 19z"/>
</g>
</svg>
